<svg width="54" height="50" fill="none" xmlns="http://www.w3.org/2000/svg"><path d="M53.524 24.832C51.51 9.06 41.947.503 26.678.503 14.094.503.168 13.926.168 26.007c0 10.067 4.866 18.96 12.92 23.658 0-.672.167-.336.838-1.007C6.544 44.295 1.678 35.235 1.678 26.007c0-6.04 4.027-13.59 9.564-18.289l2.181 2.852c-4.866 4.027-8.221 9.732-8.221 16.611 0 8.557 4.194 15.437 11.073 18.96.336-.168.84-.503 1.343-.671-.84-.336-1.678-.839-2.517-1.342l2.349-2.35c1.846 1.175 3.859 2.014 6.208 2.517 1.174-.167 2.349-.167 3.691-.167 1.175 0 2.517 0 3.524.167 4.027-.839 7.55-2.852 10.235-5.872 3.188-3.691 4.53-8.222 3.859-12.752-.168-1.51-.504-2.852-.84-4.194l2.685-1.51c.504 1.677 1.007 3.523 1.175 5.537.671 5.369-.84 10.57-4.53 14.765-2.014 2.18-4.866 4.194-7.383 5.369.503.168 1.175.67 1.51.839 2.35-1.343 4.866-3.524 6.711-5.537 3.86-4.53 5.538-10.067 4.866-15.772-.335-2.181-.839-4.195-1.342-6.04l2.685-1.007c.67 2.181 1.51 4.698 1.845 7.215.84 6.208-1.845 12.92-6.208 17.785-1.678 2.013-3.691 3.691-5.872 5.033.67.672.67.336.67 1.007 2.518-1.51 4.699-3.188 6.544-5.369 4.699-5.37 6.88-12.08 6.04-18.96Zm-39.43 18.624c-4.866-3.523-7.886-9.228-7.886-16.275 0-6.208 3.356-11.745 7.886-15.604l1.342 1.678c-3.69 3.02-6.208 7.383-6.208 12.752 0 6.208 2.853 11.577 7.215 14.933l-2.349 2.517Zm3.188-3.187c-4.194-3.02-6.88-8.222-6.88-14.094 0-5.034 2.35-9.229 5.706-11.913l1.677 2.181c-2.852 2.685-4.697 6.376-4.697 10.57 0 4.866 2.348 9.06 5.872 11.578l-1.678 1.678Zm3.188-22.316-1.174-1.51c2.349-1.846 5.033-2.852 8.221-2.852 7.886 0 12.752 5.872 12.752 15.268 0 4.195-6.04 10.906-13.255 10.906-2.35 0-4.363-.503-6.208-1.51l.67-.671c.169-.168.169-.503 0-.839-.167-.168-.503-.168-.838 0l-.84.839c-3.523-2.181-5.704-6.208-5.704-10.738 0-3.86 1.678-7.383 4.195-9.732l1.174 1.342c.168.168.336.168.504.168.167 0 .167 0 .335-.168.336 0 .336-.335.168-.503Zm19.799 19.631c-3.188 3.691-8.054 5.872-12.92 5.872-3.355 0-6.376-1.006-8.892-2.516l1.845-1.846c2.014 1.175 4.363 1.846 7.047 1.846 8.054 0 14.43-7.215 14.43-11.913 0-9.9-5.537-16.443-13.926-16.443-3.356 0-6.376 1.175-8.893 3.02l-1.678-2.013c3.02-2.181 6.544-3.188 10.067-3.188h.671c7.719.335 12.584 3.691 14.933 10.402l-.67.336c-.336.168-.336.503-.169.839.168.168.336.335.504.335h.335l.504-.335c.335 1.174.67 2.517.838 3.859.168 4.027-1.174 8.221-4.026 11.745Zm3.523-17.45C41.275 13.087 36.074 9.564 28.02 9.06h-.839c-3.69 0-7.55 1.175-10.738 3.524l-1.342-1.678c3.859-3.02 8.557-4.698 13.087-4.698 9.228 0 15.436 4.195 18.457 12.416l-2.853 1.51Zm3.524-2.013C44.296 9.564 37.584 5.034 28.02 5.034c-4.698 0-9.563 1.845-13.758 4.865L12.08 6.88c4.194-3.188 10.067-5.704 14.765-5.704 11.241 0 19.63 6.208 23.322 15.604l-2.852 1.342Z" fill="#FF9701"/><path d="M17.114 26.51c0 5.537 4.53 10.403 9.732 10.403 4.195 0 7.886-2.517 9.396-6.04l.168.167h.167c.168 0 .336-.168.504-.335.167-.336 0-.671-.168-.671l-.336-.168c.168-.84.336-1.51.336-2.35 0-7.717-5.201-10.402-9.9-10.402-5.369-.168-9.899 4.027-9.899 9.396Zm9.9-8.39c5.537 0 8.892 3.524 8.892 9.397 0 .671-.168 1.342-.335 1.846l-2.35-1.175c.168-.503.168-1.007.168-1.51 0-3.524-2.852-6.208-6.208-6.208-3.523 0-6.208 2.852-6.208 6.208 0 3.523 2.853 6.208 6.208 6.208 2.517 0 4.698-1.51 5.705-3.691l2.35 1.174c-1.343 3.188-4.699 5.37-8.558 5.37-4.53 0-8.557-4.363-8.557-9.397 0-4.53 4.027-8.221 8.893-8.221Zm2.852 9.565 2.181 1.174a5.163 5.163 0 0 1-4.698 3.02c-2.852 0-5.201-2.349-5.201-5.201 0-2.852 2.349-5.201 5.201-5.201 2.852 0 5.201 2.349 5.201 5.2 0 .337 0 .672-.167 1.008l-2.014-1.007c-.335-.168-.67 0-.67.168-.336.335-.169.67.167.839Z" fill="#FF9701"/><path d="M26.846 0C12.08 0 0 12.08 0 26.846c0 9.396 4.866 17.785 12.248 22.483.336-.503.671-1.007 1.175-1.51-6.88-4.363-11.577-12.08-11.577-20.973 0-13.759 11.241-25 25-25 13.758 0 25 11.241 25 25 0 8.892-4.698 16.61-11.577 20.973.503.503.838 1.007 1.174 1.51 7.383-4.698 12.248-13.087 12.248-22.483C53.691 12.08 41.611 0 26.846 0Z" fill="#FF9701"/><path d="M26.845 43.96c-6.879 0-12.751 2.349-14.597 5.369 0 0 .503.335 1.51.503 2.685-2.181 7.55-3.691 13.087-3.691 5.705 0 10.739 1.51 13.255 3.859.672-.168 1.175-.503 1.343-.503-1.846-3.188-7.718-5.537-14.598-5.537Z" fill="#FF9701"/></svg>