<svg width="50" height="50" fill="none" xmlns="http://www.w3.org/2000/svg"><path d="M45.35 0h-2.795L39.91 2.996h-9.471L28.089 0h-6.304l-2.25 2.896h-9.273L7.369 0H4.006L0 4.743v42.935L2.646 50l2.324-1.872h2.077l1.954 1.822h9l1.954-1.772h7.616l1.73 1.747h9.62l2.2-1.772h2.448l2.868 1.772 3.042-2.246V4.742L45.349 0ZM3.214 46.355l-.57-1.098V4.743l1.979-2.571h1.162c.025.2.05.4.074.574.074.424.074.799.1 1.173.098.849.148 1.648.222 2.496.074.325.074.624.074.949.074 1.023.074 1.972.074 2.946 0 .549-.099 1.023-.099 1.547 0 .225.1.325.322.325s.321-.1.321-.325c.074-1.023.099-2.097.099-3.12 0-.799-.074-1.623-.099-2.421-.074-.625-.099-1.323-.148-1.973-.074-.599-.149-1.173-.223-1.772-.074-.1-.074-.25-.099-.4h.025L8.58 4.744h3.932c.074.649.148 1.248.148 1.897.074 1.148.074 2.371.074 3.52 0 .674-.098 1.398-.148 2.072-.099.998-.247 1.997-.544 2.995-.247 1.049-.692 2.047-1.162 3.046a12.034 12.034 0 0 0-1.162 3.145 62.26 62.26 0 0 0-.841 3.72c-.148.673-.247 1.397-.37 2.146a40.47 40.47 0 0 1-.248 1.822c-.074.475-.1.899-.149 1.373-.098.475-.148.999-.222 1.473-.074.375-.074.749-.099 1.098a18.646 18.646 0 0 0-.247 1.873c-.074.399-.074.898-.1 1.298-.098.774-.148 1.522-.222 2.296 0 .25-.074.474-.074.75 0 .373-.074.773-.074 1.147-.074.924-.099 1.898-.148 2.821a14.62 14.62 0 0 0-.1 1.748c0 .474-.024.923-.049 1.373h-3.56Zm14.02 1.324h-2.893c0-1.598-.05-3.246-.05-4.818 0-.924.074-1.872.074-2.796 0-.55.075-1.073.075-1.623.074-.699.074-1.422.098-2.196.075-.8.1-1.548.149-2.297.074-.849.148-1.772.247-2.646.1-.948.247-1.947.544-2.82.074-.15-.099-.375-.247-.425-.148-.075-.322 0-.371.225-.099.474-.223 1.023-.322 1.497-.098.7-.148 1.323-.247 1.972-.074.425-.074.8-.099 1.174-.099.773-.148 1.547-.222 2.296 0 .325-.074.6-.074.924 0 .599-.075 1.123-.075 1.722 0 .624-.074 1.273-.074 1.947 0 .475-.074 1.024-.074 1.498-.074 1.872-.074 3.67-.074 5.567 0 .274.025.549.05.798H9.741l-1.31-1.322h-.569c.025-.5.05-1.024.05-1.523.074-.75.074-1.523.099-2.247.074-.599.074-1.098.098-1.672.075-.774.1-1.523.149-2.297.074-.599.099-1.223.148-1.822.1-.774.223-1.623.247-2.447.075-.599.1-1.098.149-1.672.074-.624.148-1.248.222-1.897.1-.6.149-1.099.223-1.673.074-.474.148-.998.222-1.472.1-.475.149-.999.248-1.523.099-.749.247-1.473.42-2.197.322-1.148.594-2.296.94-3.445.222-.624.47-1.248.791-1.897a15.759 15.759 0 0 0 1.261-3.919c.099-.624.223-1.298.321-1.922.075-.3.1-.674.1-.999.074-1.522.098-3.07.098-4.593 0-.749-.148-1.547-.074-2.346h7.393l1.979-2.571h2.225c.05.474.074.948.148 1.423.075.599.1 1.173.1 1.772.074.849.074 1.722.074 2.571-.075.699-.075 1.423-.149 2.122-.222 1.722-.47 3.37-1.063 4.992-.247.6-.544 1.248-.791 1.798-.47.948-.841 2.022-1.113 3.12a50.82 50.82 0 0 0-.84 3.595c-.223.798-.322 1.647-.421 2.496-.099.849-.247 1.772-.371 2.646-.099.624-.148 1.273-.223 1.947-.074.774-.148 1.423-.222 2.122 0 .45 0 .799-.025 1.173-.099.774-.148 1.498-.222 2.247 0 .25-.074.474-.074.773-.075.625-.075 1.249-.1 1.873-.074.923-.098 1.772-.148 2.67a17.257 17.257 0 0 0-.099 1.973c-.074.923-.074 1.872-.099 2.82v.075h-.618l-1.681 1.248Zm11.374-1.324h-5.193V43.61c0-.55.075-1.124.075-1.723.074-.599.074-1.248.099-1.797.099-1.173.148-2.297.47-3.42.074-.225-.075-.374-.223-.424-.223-.075-.371.075-.42.25-.1.698-.223 1.397-.322 2.096-.099.624-.099 1.273-.148 1.947a24.815 24.815 0 0 0-.1 2.347c-.049 1.173-.049 2.346-.073 3.494h-2.325c0-.748.05-1.522.05-2.221.074-.774.074-1.423.099-2.197.074-.599.074-1.173.099-1.772.074-.8.099-1.623.148-2.422.074-.599.099-1.248.148-1.872.1-.849.223-1.722.248-2.571.074-.424.074-.799.099-1.248.098-.55.148-1.073.222-1.623.074-.474.099-.948.148-1.422.075-.475.1-.924.149-1.324l.222-1.422c.1-.7.149-1.398.322-2.022.247-1.248.47-2.447.791-3.67.247-1.023.593-2.097 1.063-3.045.371-.8.767-1.648 1.063-2.497.371-1.023.619-2.021.767-3.12.074-.624.148-1.323.223-1.972.074-.55.099-1.073.099-1.623.074-.848.074-1.722.074-2.57-.075-.85-.1-1.648-.149-2.497-.05-.324-.099-.699-.148-1.048h1.212l2.15 2.57h4.031c0 .225.025.45.05.675.074.699.099 1.398.148 2.097.074.923.148 1.772.247 2.67.1.7.149 1.424.248 2.123.099.798.222 1.547.37 2.346a28.1 28.1 0 0 0 .421 2.446c.148.849.321 1.648.47 2.447.099.599.222 1.248.321 1.872.074.549.149 1.073.223 1.622.074.325.074.7.099 1.024.099.849.148 1.647.222 2.496v.225c0 1.173.074 2.346 0 3.52l-.222 2.42c-.075.6-.1 1.249-.223 1.798a31.019 31.019 0 0 1-.37 2.097c-.199 1.148-.372 2.222-.594 3.395-.1.55-.149 1.123-.223 1.647-.222 1.423-.099 2.896-.099 4.319 0 .6.05 1.123.124 1.697h-4.723l-1.459-1.373Zm18.57-1.123-.742 1.123h-3.832c-.025-.324-.05-.624-.05-.923a94.857 94.857 0 0 1-.099-4.593c0-.774.075-1.548.1-2.297.073-.799.148-1.622.247-2.421a20.18 20.18 0 0 1 .79-3.67c.1-.25.223-.599.322-.848.1-.325-.074-.55-.37-.475-.1 0-.223.15-.248.25-.222.624-.42 1.273-.593 1.947-.223.924-.371 1.797-.544 2.72-.1.55-.1 1.074-.149 1.623-.074.924-.099 1.798-.148 2.721-.074 1.074-.074 2.097-.074 3.146 0 .799.074 1.547.099 2.346 0 .15 0 .325.024.474h-1.854l-1.731 1.324h-2.572c-.024-.25-.024-.5-.024-.724a71.742 71.742 0 0 1-.1-3.994c0-.8.075-1.648.223-2.447.223-1.398.544-2.796.791-4.169.149-.698.223-1.422.322-2.121.099-.8.223-1.623.247-2.447.074-.799.1-1.547.1-2.346 0-.849.073-1.648 0-2.447-.075-.848-.15-1.772-.223-2.646-.075-.474-.1-1.023-.149-1.547-.099-.6-.148-1.173-.247-1.773a40.137 40.137 0 0 0-.371-2.021c-.222-.8-.37-1.648-.544-2.447-.148-.699-.247-1.398-.37-2.097-.1-.549-.15-1.123-.248-1.722-.099-.55-.148-1.073-.223-1.623-.099-.474-.148-1.023-.222-1.497-.074-.425-.074-.8-.1-1.174-.098-.699-.148-1.423-.222-2.121 0-.25-.074-.6-.074-.85 0-.249-.025-.498-.025-.748h5.267v.35c-.074 1.397-.074 2.72-.099 4.068 0 .6-.074 1.124-.074 1.723 0 .799.074 1.647.074 2.446.075.699.075 1.398.1 2.097.074.799.098 1.623.222 2.421.148 1.947.47 3.82.94 5.617.074.324.148.624.32.923.1.225.421.25.62.15.246-.1.32-.324.246-.599-.247-1.123-.593-2.247-.79-3.37-.223-.849-.248-1.772-.372-2.646-.074-.549-.099-1.073-.148-1.622-.074-.924-.1-1.798-.148-2.721 0-.475-.075-.924-.075-1.323 0-.774-.074-1.498-.074-2.247 0-.949.074-1.947.074-2.896.05-.773.075-1.572.1-2.346h.815l1.904-2.571h1.558l2.423 2.57v40.49Z" fill="#FF9701"/><path d="M33.653 21.642c-.099-.773-.148-1.547-.321-2.346-.223-1.273-.544-2.646-1.014-3.844-.371-.924-.791-1.723-1.484-2.347-.321-.324-.692-.549-1.162-.549-.692-.075-1.236.25-1.632.774-.47.474-.791 1.123-1.063 1.772a16.27 16.27 0 0 0-1.113 3.994c-.148 1.174-.322 2.422-.42 3.645-.1.849-.1 1.722-.1 2.571v2.022c.075.948.1 1.648.223 2.297.075.773.149 1.547.247 2.296.149 1.173.47 2.346.841 3.52.371 1.123.791 2.197 1.706 2.995.619.6 1.484.7 2.226.225.618-.375 1.014-.949 1.31-1.623a17.44 17.44 0 0 0 .841-2.246c.247-.924.47-1.872.618-2.821.149-.699.223-1.423.248-2.122.099-.774.222-1.547.222-2.346 0-1.248 0-2.497-.074-3.745 0-.724-.074-1.497-.099-2.122Zm-.964 8.113c-.1.774-.149 1.548-.322 2.297a22.194 22.194 0 0 1-.544 2.296c-.222.8-.47 1.623-.915 2.297-.222.374-.47.699-.79 1.023-.322.325-.767.325-1.064 0-.247-.25-.544-.599-.767-.948-.692-1.173-1.014-2.496-1.26-3.844-.15-.949-.322-1.873-.421-2.821-.1-.6-.149-1.173-.149-1.773a46.006 46.006 0 0 1-.099-3.195c0-.773.075-1.497.1-2.246.098-1.124.222-2.197.37-3.27.223-1.274.544-2.646 1.014-3.845.247-.624.544-1.273 1.063-1.772.544-.474.915-.424 1.311 0 .396.424.767.949.94 1.498.247.774.544 1.498.692 2.246.148.7.321 1.398.42 2.097.1.6.223 1.124.248 1.723.074.424.074.799.099 1.248.074.474.098 1.023.098 1.498v1.497c0 .55.075 1.024.1 1.498.024.799 0 1.648-.124 2.496Z" fill="#FF9701"/><path d="M31.898 23.89c-.074-.8-.148-1.549-.321-2.347-.148-.924-.42-1.872-1.014-2.646-.47-.6-1.162-.774-1.78-.15-.42.424-.618.948-.84 1.498-.47 1.273-.62 2.67-.768 4.069-.074.698 0 1.397 0 2.096 0 .6.075 1.124.1 1.723l.32 1.947c.15.924.421 1.772.94 2.496.47.624 1.237.849 1.855.225.42-.425.593-.924.791-1.423.47-1.173.618-2.446.767-3.744.074-.6 0-1.174 0-1.773.025-.699.025-1.323-.05-1.972Zm-.593 3.694c-.148 1.273-.322 2.496-.767 3.67-.148.423-.37.798-.692 1.122-.247.225-.42.325-.692 0a5.93 5.93 0 0 1-.619-1.173c-.32-.923-.544-1.797-.593-2.72-.074-.7-.148-1.399-.148-2.098a8.54 8.54 0 0 1 0-1.947c.099-1.398.247-2.72.766-3.994.149-.424.371-.848.693-1.173.222-.25.47-.25.766.075.371.424.594.948.767 1.498.148.599.321 1.248.42 1.872.074.25.099.599.099.849.074.773.074 1.497.099 2.246h-.074c-.025.5.024 1.124-.025 1.773Z" fill="#FF9701"/></svg>