<svg width="54" height="50" fill="none" xmlns="http://www.w3.org/2000/svg"><path d="M12.248 49.33C4.866 44.63 0 36.241 0 26.845 0 13.108 10.712 1.694 24.06.172v.335l-.253 1.524C11.47 3.54 1.846 14.116 1.846 26.846c0 8.893 4.698 16.61 11.577 20.973-.504.503-.84 1.007-1.175 1.51ZM40.269 47.819c6.879-4.362 11.577-12.08 11.577-20.973 0-12.73-9.624-23.306-21.961-24.815L29.63.507V.172c13.349 1.522 24.06 12.936 24.06 26.674 0 9.396-4.865 17.785-12.248 22.483-.336-.503-.671-1.007-1.174-1.51Z" fill="#FF9701"/><path d="M26.845 43.96c-6.879 0-12.751 2.349-14.597 5.369 0 0 .503.335 1.51.503 2.685-2.18 7.55-3.69 13.087-3.69 5.705 0 10.739 1.51 13.255 3.858.672-.168 1.175-.503 1.343-.503-1.846-3.188-7.718-5.537-14.598-5.537ZM34.57 20.282c-3.915-3.916-10.559-4.153-14.237-.475-2.966 2.966-3.796 7.356-2.372 10.915h-.238l-.118.119c-.12.118-.12.356-.12.593.12.356.476.474.594.356l.356-.119c.475.712.83 1.305 1.424 1.898 5.457 5.458 11.033 3.678 14.355.356 3.916-3.677 4.153-9.847.356-13.643Zm-1.067 12.932c-3.916 3.915-8.78 3.796-12.932-.356-.475-.475-.83-1.068-1.068-1.543l2.491-.83c.238.474.593.83.95 1.186 2.49 2.492 6.406 2.373 8.779 0 2.491-2.491 2.373-6.406 0-8.78-2.491-2.49-6.407-2.372-8.78 0-1.78 1.78-2.254 4.39-1.423 6.645l-2.492.83c-1.305-3.203-.474-7.118 2.254-9.847 3.204-3.203 9.136-2.966 12.695.593 3.204 3.203 2.966 8.66-.474 12.102Zm-8.78-4.746-2.373.712a5.163 5.163 0 0 1 1.187-5.458c2.017-2.017 5.338-2.017 7.355 0 2.017 2.017 2.017 5.34 0 7.356-2.017 2.017-5.338 2.017-7.355 0-.238-.237-.475-.475-.594-.83l2.136-.712c.356-.119.475-.475.356-.594 0-.474-.356-.593-.712-.474Z" fill="#FF9701"/><path d="M1.184 24.827C2.986 10.653 10.991 2.432 23.806 1.18a36.455 36.455 0 0 1 3.542-.168c.841 0 1.688.062 2.537.18 11.525 1.616 23.3 13.77 23.3 24.783 0 9.854-4.743 18.558-12.592 23.157 0-.657-.163-.329-.817-.986 7.195-4.27 11.937-13.138 11.937-22.17 0-5.913-3.925-13.303-9.32-17.902l-2.127 2.792c4.742 3.942 8.013 9.525 8.013 16.259 0 8.376-4.088 15.11-10.793 18.558-.327-.164-.817-.493-1.308-.657.818-.328 1.636-.821 2.453-1.314l-2.29-2.299c-1.798 1.15-3.76 1.97-6.05 2.463-1.144-.164-2.289-.164-3.597-.164-1.145 0-2.453 0-3.434.164-3.925-.82-7.359-2.791-9.975-5.748-3.107-3.613-4.415-8.047-3.76-12.481.163-1.478.49-2.792.817-4.106l-2.617-1.478c-.49 1.642-.98 3.449-1.144 5.42-.654 5.255.817 10.346 4.415 14.452 1.962 2.135 4.742 4.106 7.195 5.255-.49.164-1.145.657-1.472.821-2.29-1.313-4.742-3.448-6.54-5.42-3.762-4.433-5.397-9.853-4.743-15.437.327-2.135.818-4.106 1.308-5.912l-2.616-.986c-.654 2.135-1.472 4.599-1.799 7.062-.818 6.077 1.799 12.646 6.05 17.409 1.636 1.97 3.598 3.613 5.724 4.927-.654.657-.654.328-.654.985-2.453-1.478-4.579-3.12-6.378-5.255C2.493 38.129.367 31.56 1.184 24.827Zm38.428 18.23c4.742-3.45 7.686-9.033 7.686-15.931 0-6.077-3.27-11.496-7.686-15.274l-1.308 1.643c3.597 2.956 6.05 7.226 6.05 12.481 0 6.077-2.78 11.332-7.031 14.617l2.29 2.463Zm-3.107-3.121c4.088-2.956 6.705-8.047 6.705-13.796 0-4.926-2.29-9.032-5.56-11.66l-1.635 2.135c2.78 2.628 4.578 6.24 4.578 10.347 0 4.762-2.289 8.868-5.723 11.332l1.635 1.642Zm-3.107-21.843 1.145-1.478c-2.29-1.806-4.906-2.792-8.013-2.792-7.685 0-12.427 5.748-12.427 14.945 0 4.106 5.886 10.675 12.918 10.675 2.29 0 4.252-.492 6.05-1.478l-.654-.657c-.163-.164-.163-.492 0-.821.164-.164.49-.164.818 0l.818.821c3.433-2.135 5.56-6.076 5.56-10.51 0-3.778-1.636-7.227-4.089-9.526l-1.145 1.314c-.163.164-.326.164-.49.164-.164 0-.164 0-.327-.164-.327 0-.327-.329-.164-.493ZM14.103 37.308c3.107 3.613 7.849 5.748 12.59 5.748 3.271 0 6.215-.985 8.668-2.463l-1.8-1.807c-1.961 1.15-4.25 1.807-6.867 1.807-7.85 0-14.063-7.062-14.063-11.66 0-9.69 5.396-16.095 13.572-16.095 3.27 0 6.214 1.15 8.667 2.956l1.635-1.97c-2.943-2.136-6.377-3.121-9.811-3.121h-.654c-7.522.328-12.264 3.613-14.554 10.182l.654.329c.327.164.327.492.164.82-.164.165-.327.33-.49.33h-.328l-.49-.33c-.327 1.15-.654 2.464-.818 3.778-.163 3.942 1.145 8.047 3.925 11.496Zm-3.434-17.08c2.453-6.898 7.522-10.346 15.37-10.84h.819a17.75 17.75 0 0 1 10.465 3.45l1.308-1.643c-3.76-2.956-8.34-4.598-12.755-4.598-8.993 0-15.044 4.106-17.987 12.153l2.78 1.478Zm-3.434-1.97c2.943-8.376 9.484-12.81 18.805-12.81 4.579 0 9.32 1.806 13.409 4.762l2.126-2.956c-3.316-2.53-7.707-4.63-11.69-5.332a15.612 15.612 0 0 0-2.7-.252 28.13 28.13 0 0 0-3.379.2C14.551 2.99 7.672 8.72 4.455 16.944l2.78 1.313Z" fill="#FF9701"/><path d="M23.3.507V11.65h7.091V.507" stroke="#FF9701" stroke-width="3"/><path fill="#fff" d="M23.807 0h6.078v11.143h-6.078z"/></svg>