<svg width="70" height="70" fill="none" xmlns="http://www.w3.org/2000/svg"><g clip-path="url(#a)"><path d="M68.834 25.667H45.249a26.865 26.865 0 0 0-9.082-7.217v-5.033l4.2-3.15c.294-.22.467-.566.467-.934V1.167C40.834.522 40.312 0 39.667 0h-4.666c-.31 0-.606.123-.825.342L32.667 1.85 31.16.342A1.166 1.166 0 0 0 30.334 0h-7c-.31 0-.606.123-.825.342L21.001 1.85 19.492.342A1.167 1.167 0 0 0 18.668 0H14c-.644 0-1.167.522-1.167 1.167v8.166c0 .367.173.713.467.934l4.2 3.15v5.044C8.669 22.735 0 34.214 0 48.936.001 62.322 9.781 70 26.834 70c2.768.01 5.531-.236 8.254-.733.177.441.604.731 1.08.733h32.666c.644 0 1.167-.523 1.167-1.167v-42c0-.644-.523-1.166-1.167-1.166ZM15.168 8.75V2.333h3.017l1.991 1.992a1.167 1.167 0 0 0 1.65 0l1.991-1.992h6.034l1.992 1.992a1.167 1.167 0 0 0 1.65 0l1.99-1.992h3.018V8.75l-3.889 2.917H19.056L15.168 8.75ZM33.834 14v3.5h-14V14h14Zm1.167 40.218c-5.46 4.52-13.55 3.76-18.07-1.7-4.52-5.459-3.759-13.548 1.7-18.069a12.833 12.833 0 0 1 16.37 0v19.77Zm0-27.385v4.733c-7.05-4.522-16.432-2.472-20.955 4.578-4.522 7.05-2.473 16.433 4.578 20.955 4.99 3.2 11.387 3.2 16.377 0v9.811a42.49 42.49 0 0 1-8.167.756c-7.366 0-24.5-1.824-24.5-18.73 0-11.162 6.69-25.05 17.89-29.103h13.229a22.983 22.983 0 0 1 8.672 5.834h-5.957c-.645 0-1.167.522-1.167 1.166Zm32.666 40.833H37.334V37.333h30.333v30.333Zm0-32.666H37.334v-7h30.333v7Z" fill="url(#b)"/><path d="M45.5 39.666h-4.666c-.645 0-1.167.523-1.167 1.167V45.5c0 .644.522 1.166 1.167 1.166H45.5c.645 0 1.167-.522 1.167-1.166v-4.667c0-.644-.522-1.166-1.167-1.166Zm-1.166 4.667H42V42h2.334v2.333Z" fill="url(#c)"/><path d="M54.833 39.666h-4.666c-.645 0-1.167.523-1.167 1.167V45.5c0 .644.522 1.166 1.167 1.166h4.666c.645 0 1.167-.522 1.167-1.166v-4.667c0-.644-.522-1.166-1.167-1.166Zm-1.166 4.667h-2.334V42h2.334v2.333Z" fill="url(#d)"/><path d="M64.166 39.666H59.5c-.645 0-1.167.523-1.167 1.167V45.5c0 .644.522 1.166 1.167 1.166h4.666c.645 0 1.167-.522 1.167-1.166v-4.667c0-.644-.522-1.166-1.167-1.166ZM63 44.334h-2.334V42H63v2.333Z" fill="url(#e)"/><path d="M45.5 49h-4.666c-.645 0-1.167.522-1.167 1.166v4.667c0 .644.522 1.167 1.167 1.167H45.5c.645 0 1.167-.523 1.167-1.167v-4.667c0-.644-.522-1.166-1.167-1.166Zm-1.166 4.666H42v-2.333h2.334v2.333Z" fill="url(#f)"/><path d="M54.833 49h-4.666c-.645 0-1.167.522-1.167 1.166v4.667c0 .644.522 1.167 1.167 1.167h4.666c.645 0 1.167-.523 1.167-1.167v-4.667c0-.644-.522-1.166-1.167-1.166Zm-1.166 4.666h-2.334v-2.333h2.334v2.333Z" fill="url(#g)"/><path d="M45.5 58.333h-4.666c-.645 0-1.167.522-1.167 1.167v4.666c0 .645.522 1.167 1.167 1.167H45.5c.645 0 1.167-.522 1.167-1.167V59.5c0-.645-.522-1.167-1.167-1.167ZM44.334 63H42v-2.334h2.334V63Z" fill="url(#h)"/><path d="M54.833 58.333h-4.666c-.645 0-1.167.522-1.167 1.167v4.666c0 .645.522 1.167 1.167 1.167h4.666c.645 0 1.167-.522 1.167-1.167V59.5c0-.645-.522-1.167-1.167-1.167ZM53.667 63h-2.334v-2.334h2.334V63Z" fill="url(#i)"/><path d="M64.166 49H59.5c-.645 0-1.167.522-1.167 1.166v14c0 .645.522 1.167 1.167 1.167h4.666c.645 0 1.167-.522 1.167-1.167v-14c0-.644-.522-1.166-1.167-1.166ZM63 63h-2.334V51.333H63V63Z" fill="url(#j)"/><path d="M65.333 30.333H63v2.334h2.333v-2.334Z" fill="url(#k)"/><path d="M60.666 30.333h-2.333v2.334h2.333v-2.334Z" fill="url(#l)"/><path d="M56 30.333h-2.333v2.334H56v-2.334Z" fill="url(#m)"/><g clip-path="url(#n)"><path d="M21.955 48.873h2.227v1.909a.308.308 0 0 0 .319.318h1.66a.314.314 0 0 0 .318-.318v-1.91H31.5a.31.31 0 0 0 .23-.089.31.31 0 0 0 .089-.229v-1.272a.309.309 0 0 0-.09-.229.31.31 0 0 0-.229-.09H26.48V45.79h3.38c1.326 0 2.408-.404 3.247-1.213.838-.808 1.258-1.852 1.258-3.132 0-1.279-.42-2.323-1.258-3.132-.839-.808-1.92-1.213-3.246-1.213H24.5a.31.31 0 0 0-.228.09.31.31 0 0 0-.09.228v6.255h-2.227a.315.315 0 0 0-.318.318v1.481c0 .093.03.17.09.229.059.06.135.09.228.09h2.227v1.173h-2.227a.31.31 0 0 0-.229.09.31.31 0 0 0-.09.228v1.273c0 .092.03.169.09.228.06.06.136.09.229.09Zm4.524-9.655h3.182c.702 0 1.269.206 1.7.617.43.41.646.948.646 1.61 0 .663-.215 1.2-.646 1.611-.431.411-.998.617-1.7.617h-3.182v-4.455Z" fill="url(#o)"/></g></g><defs><linearGradient id="i" x1="50.648" y1="58.8" x2="52.108" y2="64.432" gradientUnits="userSpaceOnUse"><stop stop-color="#FF9700"/><stop offset=".998" stop-color="#FF6800"/><stop offset="1" stop-color="#FF6802"/></linearGradient><linearGradient id="b" x1="16.48" y1="4.666" x2="31.085" y2="60.988" gradientUnits="userSpaceOnUse"><stop stop-color="#FF9700"/><stop offset=".998" stop-color="#FF6800"/><stop offset="1" stop-color="#FF6802"/></linearGradient><linearGradient id="d" x1="50.648" y1="40.133" x2="52.108" y2="45.765" gradientUnits="userSpaceOnUse"><stop stop-color="#FF9700"/><stop offset=".998" stop-color="#FF6800"/><stop offset="1" stop-color="#FF6802"/></linearGradient><linearGradient id="e" x1="59.981" y1="40.133" x2="61.441" y2="45.765" gradientUnits="userSpaceOnUse"><stop stop-color="#FF9700"/><stop offset=".998" stop-color="#FF6800"/><stop offset="1" stop-color="#FF6802"/></linearGradient><linearGradient id="f" x1="41.315" y1="49.466" x2="42.775" y2="55.099" gradientUnits="userSpaceOnUse"><stop stop-color="#FF9700"/><stop offset=".998" stop-color="#FF6800"/><stop offset="1" stop-color="#FF6802"/></linearGradient><linearGradient id="g" x1="50.648" y1="49.466" x2="52.108" y2="55.099" gradientUnits="userSpaceOnUse"><stop stop-color="#FF9700"/><stop offset=".998" stop-color="#FF6800"/><stop offset="1" stop-color="#FF6802"/></linearGradient><linearGradient id="h" x1="41.315" y1="58.8" x2="42.775" y2="64.432" gradientUnits="userSpaceOnUse"><stop stop-color="#FF9700"/><stop offset=".998" stop-color="#FF6800"/><stop offset="1" stop-color="#FF6802"/></linearGradient><linearGradient id="c" x1="41.315" y1="40.133" x2="42.775" y2="45.765" gradientUnits="userSpaceOnUse"><stop stop-color="#FF9700"/><stop offset=".998" stop-color="#FF6800"/><stop offset="1" stop-color="#FF6802"/></linearGradient><linearGradient id="j" x1="59.981" y1="50.089" x2="66.193" y2="60.355" gradientUnits="userSpaceOnUse"><stop stop-color="#FF9700"/><stop offset=".998" stop-color="#FF6800"/><stop offset="1" stop-color="#FF6802"/></linearGradient><linearGradient id="k" x1="63.549" y1="30.489" x2="64.036" y2="32.366" gradientUnits="userSpaceOnUse"><stop stop-color="#FF9700"/><stop offset=".998" stop-color="#FF6800"/><stop offset="1" stop-color="#FF6802"/></linearGradient><linearGradient id="l" x1="58.882" y1="30.489" x2="59.369" y2="32.366" gradientUnits="userSpaceOnUse"><stop stop-color="#FF9700"/><stop offset=".998" stop-color="#FF6800"/><stop offset="1" stop-color="#FF6802"/></linearGradient><linearGradient id="m" x1="54.216" y1="30.489" x2="54.703" y2="32.366" gradientUnits="userSpaceOnUse"><stop stop-color="#FF9700"/><stop offset=".998" stop-color="#FF6800"/><stop offset="1" stop-color="#FF6802"/></linearGradient><linearGradient id="o" x1="24.633" y1="38.033" x2="27.804" y2="49.151" gradientUnits="userSpaceOnUse"><stop stop-color="#FF9700"/><stop offset=".998" stop-color="#FF6800"/><stop offset="1" stop-color="#FF6802"/></linearGradient><clipPath id="a"><path fill="#fff" d="M0 0h70v70H0z"/></clipPath><clipPath id="n"><path fill="#fff" transform="translate(21 37.1)" d="M0 0h14v14H0z"/></clipPath></defs></svg>