<svg width="70" height="70" fill="none" xmlns="http://www.w3.org/2000/svg"><g clip-path="url(#a)"><path d="M69.872 16.6a3.498 3.498 0 0 0-1.633-2.123 3.5 3.5 0 0 0-4.783 1.282l-.583 1.015a1.166 1.166 0 0 0-1.586.42l-2.963 5.051-1.015-.583a1.168 1.168 0 0 0-1.598.432 1.167 1.167 0 0 0 .431 1.586l1.015.583-9.915 17.182-2.45 6.544-1.166 2.181a3.5 3.5 0 0 0 .187 3.78l-2.625 3.22-.734-1.843A2.332 2.332 0 0 0 36.289 55l-.42.711-.396-4.666a2.334 2.334 0 0 0-4.538-.548l-2.87 8.609c-.2.608.128 1.265.735 1.47.114.053.237.084.362.093.501.001.948-.318 1.108-.793l2.858-8.609.408 4.736a2.333 2.333 0 0 0 4.328 1.003l.432-.712.723 1.832a2.332 2.332 0 0 0 3.99.595l2.717-3.441c.3.078.61.118.922.117a3.5 3.5 0 0 0 3.044-1.727l1.166-1.948 4.445-5.4 10.02-17.393 1.015.583a1.166 1.166 0 0 1 .431 1.598l-4.666 8.084a1.165 1.165 0 0 0 .373 1.645 1.165 1.165 0 0 0 1.599-.432l4.666-8.083a3.498 3.498 0 0 0-1.284-4.783l-1.015-.583 2.917-5.051a1.167 1.167 0 0 0-.42-1.587l.583-1.014a3.498 3.498 0 0 0 .35-2.706Zm-4.398.326c.154-.27.41-.468.712-.548.3-.074.616-.032.886.117.27.154.468.41.549.711.074.3.032.616-.117.886l-.583 1.015-2.03-1.166.583-1.015ZM49.575 49.494l-.583-.338-1.726-1.004 1.656-4.432 3.674 2.123-3.02 3.651Zm-3.5 3.37a1.166 1.166 0 0 1-.349-1.527l.583-1.015 2.03 1.167-.584 1.003a1.167 1.167 0 0 1-1.68.373Zm7.851-8.934-4.036-2.333 9.332-16.168 4.036 2.334-9.332 16.167Zm10.498-18.186-4.036-2.332 2.333-4.036 4.036 2.332-2.333 4.037Z" fill="url(#b)"/><path d="M18.405 52.28 14.277 56.4l-2.473-2.473a1.167 1.167 0 1 0-1.645 1.656l2.473 2.473a2.332 2.332 0 0 0 1.645.676c.62.004 1.216-.24 1.656-.676l4.117-4.13a1.167 1.167 0 0 0-1.645-1.644Z" fill="url(#c)"/><path d="M4.665 55.42c0 5.475 4.44 9.914 9.915 9.914 5.476 0 9.915-4.439 9.915-9.915a1.167 1.167 0 0 0-2.333 0 7.582 7.582 0 1 1-7.582-7.582 7.516 7.516 0 0 1 4.55 1.517 1.166 1.166 0 1 0 1.4-1.867A9.916 9.916 0 0 0 4.664 55.42Z" fill="url(#d)"/><path d="M41.992 9.343a1.166 1.166 0 1 0 0-2.333H11.664c-.645 0-1.167.523-1.167 1.167v4.666c0 .644.522 1.166 1.167 1.166h30.328a1.166 1.166 0 1 0 0-2.333H12.83V9.343h29.162Z" fill="url(#e)"/><path d="M15.163 16.342a1.167 1.167 0 0 0 0 2.333h23.329a1.166 1.166 0 1 0 0-2.333h-23.33Z" fill="url(#f)"/><path d="M45.494 24.508H19.83a1.167 1.167 0 0 0 0 2.333h25.663a1.166 1.166 0 1 0 0-2.333Z" fill="url(#g)"/><path d="M33.828 32.672c0-.644-.522-1.166-1.166-1.166H9.332a1.166 1.166 0 1 0 0 2.333h23.33c.644 0 1.166-.522 1.166-1.167Z" fill="url(#h)"/><path d="M45.491 31.506h-8.165a1.166 1.166 0 1 0 0 2.333h8.165a1.166 1.166 0 1 0 0-2.333Z" fill="url(#i)"/><path d="M20.997 39.671a1.166 1.166 0 1 0 0-2.333H9.332a1.167 1.167 0 0 0 0 2.333h11.665Z" fill="url(#j)"/><path d="M25.663 39.671h8.166a1.166 1.166 0 1 0 0-2.333h-8.166a1.167 1.167 0 0 0 0 2.333Z" fill="url(#k)"/><path d="M52.491 53.67c-.644 0-1.166.522-1.166 1.166v11.665c0 .644-.523 1.166-1.167 1.166H3.5a1.166 1.166 0 0 1-1.166-1.166V3.51c0-.644.522-1.166 1.166-1.166h46.66c.643 0 1.166.522 1.166 1.166v21.907a1.167 1.167 0 0 0 2.332 0V3.511A3.5 3.5 0 0 0 50.158.012H3.5A3.5 3.5 0 0 0 0 3.512V66.5A3.5 3.5 0 0 0 3.5 70h46.658a3.5 3.5 0 0 0 3.5-3.5V54.837c0-.644-.523-1.166-1.167-1.166Z" fill="url(#l)"/></g><defs><linearGradient id="h" x1="14.207" y1="31.661" x2="14.255" y2="33.663" gradientUnits="userSpaceOnUse"><stop stop-color="#FF9700"/><stop offset=".998" stop-color="#FF6800"/><stop offset="1" stop-color="#FF6802"/></linearGradient><linearGradient id="b" x1="37.893" y1="17.117" x2="48.553" y2="54.114" gradientUnits="userSpaceOnUse"><stop stop-color="#FF9700"/><stop offset=".998" stop-color="#FF6800"/><stop offset="1" stop-color="#FF6802"/></linearGradient><linearGradient id="d" x1="9.333" y1="46.826" x2="13.471" y2="62.781" gradientUnits="userSpaceOnUse"><stop stop-color="#FF9700"/><stop offset=".998" stop-color="#FF6800"/><stop offset="1" stop-color="#FF6802"/></linearGradient><linearGradient id="e" x1="18.186" y1="7.477" x2="18.519" y2="13.468" gradientUnits="userSpaceOnUse"><stop stop-color="#FF9700"/><stop offset=".998" stop-color="#FF6800"/><stop offset="1" stop-color="#FF6802"/></linearGradient><linearGradient id="f" x1="20.037" y1="16.498" x2="20.084" y2="18.5" gradientUnits="userSpaceOnUse"><stop stop-color="#FF9700"/><stop offset=".998" stop-color="#FF6800"/><stop offset="1" stop-color="#FF6802"/></linearGradient><linearGradient id="g" x1="25.256" y1="24.663" x2="25.299" y2="26.666" gradientUnits="userSpaceOnUse"><stop stop-color="#FF9700"/><stop offset=".998" stop-color="#FF6800"/><stop offset="1" stop-color="#FF6802"/></linearGradient><linearGradient id="c" x1="12.289" y1="52.449" x2="13.223" y2="58.074" gradientUnits="userSpaceOnUse"><stop stop-color="#FF9700"/><stop offset=".998" stop-color="#FF6800"/><stop offset="1" stop-color="#FF6802"/></linearGradient><linearGradient id="i" x1="38.631" y1="31.661" x2="38.746" y2="33.658" gradientUnits="userSpaceOnUse"><stop stop-color="#FF9700"/><stop offset=".998" stop-color="#FF6800"/><stop offset="1" stop-color="#FF6802"/></linearGradient><linearGradient id="j" x1="11.461" y1="37.493" x2="11.548" y2="39.493" gradientUnits="userSpaceOnUse"><stop stop-color="#FF9700"/><stop offset=".998" stop-color="#FF6800"/><stop offset="1" stop-color="#FF6802"/></linearGradient><linearGradient id="k" x1="26.968" y1="37.493" x2="27.084" y2="39.49" gradientUnits="userSpaceOnUse"><stop stop-color="#FF9700"/><stop offset=".998" stop-color="#FF6800"/><stop offset="1" stop-color="#FF6802"/></linearGradient><linearGradient id="l" x1="12.632" y1="4.677" x2="30.873" y2="58.606" gradientUnits="userSpaceOnUse"><stop stop-color="#FF9700"/><stop offset=".998" stop-color="#FF6800"/><stop offset="1" stop-color="#FF6802"/></linearGradient><clipPath id="a"><path fill="#fff" d="M0 0h70v70H0z"/></clipPath></defs></svg>