<svg width="70" height="70" fill="none" xmlns="http://www.w3.org/2000/svg"><path d="M50.129 0h-3.46C35.71 0 26.796 8.914 26.796 19.872c0 10.957 8.914 19.87 19.871 19.87h3.46c1.71 0 3.403-.216 5.044-.646l5.111 5.109a1.367 1.367 0 0 0 2.334-.967v-7.91a20.063 20.063 0 0 0 5.224-6.44A19.658 19.658 0 0 0 70 19.871C70 8.915 61.086 0 50.129 0Zm10.298 33.57a1.368 1.368 0 0 0-.544 1.091v5.278l-3.346-3.344a1.368 1.368 0 0 0-1.368-.34c-1.627.5-3.323.754-5.04.754h-3.46c-9.45 0-17.138-7.688-17.138-17.137 0-9.45 7.688-17.138 17.137-17.138h3.46c9.45 0 17.138 7.688 17.138 17.138 0 5.431-2.493 10.424-6.839 13.697Z" fill="url(#a)"/><path d="M54.556 14.96a5.801 5.801 0 0 0-5.367-5.367 5.744 5.744 0 0 0-4.357 1.543 5.81 5.81 0 0 0-1.839 4.232 1.367 1.367 0 0 0 2.734 0c0-.856.345-1.65.971-2.233a3.056 3.056 0 0 1 5.13 2.014 3.04 3.04 0 0 1-2.375 3.199 2.587 2.587 0 0 0-2.039 2.536v3.285a1.367 1.367 0 0 0 2.735 0v-3.176a5.758 5.758 0 0 0 4.407-6.033Z" fill="url(#b)"/><path d="M49.748 28.61a1.378 1.378 0 0 0-.967-.4c-.36 0-.712.145-.966.4-.255.254-.4.607-.4.966 0 .361.145.714.4.968.254.255.607.4.966.4.36 0 .713-.145.967-.4s.4-.607.4-.968c0-.36-.146-.712-.4-.966Z" fill="url(#c)"/><path d="M47.305 43.613c-.755 0-1.367.612-1.367 1.367v9.434a6.844 6.844 0 0 1-6.836 6.836H24.34c-.755 0-1.366.611-1.367 1.366l-.002 2.719-3.263-3.264a1.368 1.368 0 0 0-1.254-.821H9.57a6.844 6.844 0 0 1-6.836-6.836V33.36a6.844 6.844 0 0 1 6.836-6.836H23.38a1.367 1.367 0 0 0 0-2.734H9.57C4.293 23.79 0 28.082 0 33.36v21.055c0 5.277 4.293 9.57 9.57 9.57h8.184l5.615 5.616a1.367 1.367 0 0 0 2.334-.966l.003-4.65h13.396c5.277 0 9.57-4.293 9.57-9.57V44.98c0-.755-.612-1.367-1.367-1.367Z" fill="url(#d)"/><path d="M37.598 42.383H8.75a1.367 1.367 0 0 0 0 2.734h28.848a1.367 1.367 0 1 0 0-2.734Z" fill="url(#e)"/><path d="M38.564 50.44a1.377 1.377 0 0 0-.966-.4c-.36 0-.713.145-.967.4-.254.254-.4.607-.4.966 0 .36.146.713.4.967s.607.4.967.4.712-.146.966-.4c.255-.254.4-.606.4-.967 0-.36-.146-.712-.4-.966Z" fill="url(#f)"/><path d="M32.22 50.04H8.75a1.367 1.367 0 0 0 0 2.733h23.47a1.367 1.367 0 1 0 0-2.734Z" fill="url(#g)"/><path d="M28.71 34.727H8.75a1.367 1.367 0 0 0 0 2.734h19.96a1.367 1.367 0 1 0 0-2.734Z" fill="url(#h)"/><defs><linearGradient id="a" x1="36.968" y1="2.973" x2="46.537" y2="38.714" gradientUnits="userSpaceOnUse"><stop stop-color="#FF9700"/><stop offset=".998" stop-color="#FF6800"/><stop offset="1" stop-color="#FF6802"/></linearGradient><linearGradient id="b" x1="45.718" y1="10.643" x2="50.061" y2="22.793" gradientUnits="userSpaceOnUse"><stop stop-color="#FF9700"/><stop offset=".998" stop-color="#FF6800"/><stop offset="1" stop-color="#FF6802"/></linearGradient><linearGradient id="c" x1="48.058" y1="28.392" x2="48.628" y2="30.592" gradientUnits="userSpaceOnUse"><stop stop-color="#FF9700"/><stop offset=".998" stop-color="#FF6800"/><stop offset="1" stop-color="#FF6802"/></linearGradient><linearGradient id="d" x1="11.458" y1="26.869" x2="20.67" y2="64.283" gradientUnits="userSpaceOnUse"><stop stop-color="#FF9700"/><stop offset=".998" stop-color="#FF6800"/><stop offset="1" stop-color="#FF6802"/></linearGradient><linearGradient id="e" x1="14.818" y1="42.565" x2="14.87" y2="44.912" gradientUnits="userSpaceOnUse"><stop stop-color="#FF9700"/><stop offset=".998" stop-color="#FF6800"/><stop offset="1" stop-color="#FF6802"/></linearGradient><linearGradient id="f" x1="36.874" y1="50.221" x2="37.445" y2="52.421" gradientUnits="userSpaceOnUse"><stop stop-color="#FF9700"/><stop offset=".998" stop-color="#FF6800"/><stop offset="1" stop-color="#FF6802"/></linearGradient><linearGradient id="g" x1="13.552" y1="50.221" x2="13.615" y2="52.568" gradientUnits="userSpaceOnUse"><stop stop-color="#FF9700"/><stop offset=".998" stop-color="#FF6800"/><stop offset="1" stop-color="#FF6802"/></linearGradient><linearGradient id="h" x1="12.726" y1="34.909" x2="12.799" y2="37.255" gradientUnits="userSpaceOnUse"><stop stop-color="#FF9700"/><stop offset=".998" stop-color="#FF6800"/><stop offset="1" stop-color="#FF6802"/></linearGradient></defs></svg>