<svg width="15" height="15" fill="none" xmlns="http://www.w3.org/2000/svg"><path fill-rule="evenodd" clip-rule="evenodd" d="M13.481 10.538a2.959 2.959 0 0 1-2.943 2.944H4.462a2.959 2.959 0 0 1-2.943-2.944V4.463a2.958 2.958 0 0 1 2.943-2.944h6.076a2.958 2.958 0 0 1 2.943 2.944v6.075ZM10.538 0H4.462A4.457 4.457 0 0 0 0 4.463v6.075A4.456 4.456 0 0 0 4.462 15h6.076A4.456 4.456 0 0 0 15 10.538V4.463A4.457 4.457 0 0 0 10.538 0ZM7.499 9.779c-1.234 0-2.373-1.045-2.373-2.374a2.35 2.35 0 0 1 2.373-2.373 2.35 2.35 0 0 1 2.374 2.373A2.35 2.35 0 0 1 7.499 9.78Zm0-6.17c-2.088 0-3.892 1.708-3.892 3.892 0 2.088 1.709 3.892 3.893 3.892 2.088 0 3.892-1.709 3.892-3.892 0-2.184-1.709-3.893-3.892-3.893Zm4.843 0a.95.95 0 1 0-1.9 0 .95.95 0 0 0 1.9 0Z" fill="#fff"/></svg>