<svg width="121" height="56" fill="none" xmlns="http://www.w3.org/2000/svg"><path d="M35.948 14.288c2.195-.684 3.109-3.926 3.145-5.707-.182.046-13.311 3.516-13.311 3.516S38.984 7.53 39.093 7.485c-2.523.73-33.717 9.543-33.717 9.543-2.45.685-4.462 2.968-5.083 6.027A11.327 11.327 0 0 0 0 25.658l12.507-3.973s-5.34 14.93-4.571 25.57c0 0 .22-4.658 2.486-13.15-.658 4.885-1.206 9.953-1.28 13.835-.036 1.917.33 3.79 1.098 5.433l.804 1.69c1.244-10.64 3.547-24.292 7.68-35.387l17.224-5.388Z" fill="url(#a)"/><path d="M62.133 16.343c-2.414.868-4.133 3.835-4.535 4.52.183-.73 1.536-3.79 3.84-4.885-.695-.32-1.426-.457-2.23-.229-3.512.96-9.143 14.475-1.61 19.771 2.78-.502 9.18-6.118 6.363-17.26-.073-.228-.804-1.186-1.828-1.917Zm-.915 3.972c2.67 5.708-2.852 11.735-2.925 11.644-1.573-3.699-.622-6.986.585-9.178h-.037c.11-.183.22-.32.293-.502.33-.548.658-1.005.95-1.37 1.208-1.598 1.975-1.872 1.975-1.872s-.438.548-.84 1.278Z" fill="url(#b)"/><path d="M82.1 12.28s-.549-.685-1.28-1.416c-.658 1.644-1.426 4.383-1.682 7.488 0 0-.11-4.429 1.097-8.036-1.134-.959-2.524-1.735-3.511-.776-3.547 3.47-6.729 16.894-5.961 20.5.366 1.782 1.207 2.695 2.633 3.79-.33-3.013 1.5-14.108 4.315-19.587-.658 3.105-.95 9.132 1.683 14.565.767 1.142 2.633 1.142 3.071 1.05C79.54 21.092 82.1 12.28 82.1 12.28Z" fill="url(#c)"/><path d="M120.682 11.047c-.037-.183-.256-.183-.293 0-.439 2.054-1.353 3.196-1.938 3.561-1.207-2.1-1.609-11.552-1.609-11.689-.037-.593-.988-1.598-2.231-2.283-2.194 1.05-3.73 3.699-4.096 4.338.183-.685 1.353-3.425 3.401-4.657-.731-.274-1.536-.411-2.304-.229-1.536.32-4.681 6.393-4.864 12.191-1.938 5.708-3.876 7.534-5.705 7.99.147.549.366.868.366.868-.914-.685-1.39-2.968-1.39-2.968-.585-2.785.183-5.387 1.061-7.305 0-.046.037-.046.037-.091.329-.731.694-1.325 1.024-1.827 1.133-1.826 1.828-2.237 1.828-2.237s-.549.867-1.024 1.963v2.557c-.036 1.096.658 2.01 1.536 2.1h.11c.365-.913 1.207-5.159 1.207-6.437 0-.411-.147-.822-.403-1.096-.402-.411-.951-.96-1.719-1.37-2.23 1.004-3.84 3.744-4.169 4.383.183-.685 1.39-3.47 3.475-4.703-.732-.274-1.609-.41-2.597-.137-1.865.457-3.95 6.895-4.242 8.402-1.755 5.388-3.803 11.004-7.424 11.917.147.548.366.867.366.867-1.134-1.05-1.353-2.968-1.353-2.968-.037-.137-.037-.32-.073-.502 1.06-.045 2.56-1.69 3.62-2.876 3.035-3.425 2.633-8.539 2.597-8.858-.037-.274-.915-1.233-2.158-1.918-2.194.913-3.84 3.47-4.206 4.064.183-.685 1.463-3.242 3.475-4.43a4.384 4.384 0 0 0-2.56-.273c-2.743.593-9.509 15.341-.585 20.41 0 0 4.79.456 8.264-9.178.513 2.1 1.72 3.881 3.877 4.977 3.437-.274 5.668-3.653 7.204-7.351.512 1.735 1.865 3.79 3.621 4.657 1.718-.867 3.51-2.557 5.156-6.21l.037.092c.256.822.95 2.42 1.755 3.652.146.229.402.274.585.137 1.609-1.232 3.401-3.835 2.341-7.533Zm-31.707 3.607c.073-.183.147-.32.256-.503.768-1.506 1.536-2.42 1.536-2.42.732-.958 1.17-1.232 1.17-1.232s-.658 1.05-1.133 2.283c-.073 3.333-2.011 7.031-3.182 8.218-.146-2.465.585-4.657 1.353-6.346Zm24.758-9.634c.585 1.187.768 2.648.585 4.063-.621 4.338-2.267 6.803-2.962 7.717.11.867.512 1.46.512 1.46-.329-.228-.585-.639-.804-1.095-.037-.046-.037-.091-.037-.137-.366-.868-.548-1.735-.548-1.735-.805-3.47.219-6.438 1.279-8.356.842-1.507 1.683-2.42 1.683-2.42.951-1.096 1.499-1.278 1.499-1.278s-.658.776-1.207 1.78Z" fill="url(#d)"/><path d="M42.166 24.242s-.512-.867-1.28-1.69c-.659 1.645-1.427 4.338-1.646 7.443 0 0-.11-4.383 1.097-7.99-.804-.685-1.792-1.142-2.67-.457-1.828 1.416-4.022 7.397-5.375 11.506.512-3.241 1.06-6.21 1.5-7.168-.513-1.644-1.647-2.968-3.11-3.196 0 0 0 .045-.036.137-2.633 14.474-6.51 17.99-8.338 18.127.146.593.402.958.402.958-.292-.182-.512-.547-.694-.958v-.046c-.33-.776-.549-1.735-.659-2.557 0-.046 0-.091-.036-.137a5.572 5.572 0 0 1-.11-1.096v-.183c.914 0 2.523-.136 3.51-1.278 2.89-3.196 2.817-8.401 2.78-8.675-.037-.229-.695-1.187-1.719-1.918-2.486.685-4.352 3.607-4.754 4.246.22-.73 1.682-3.744 4.06-4.703-.695-.365-1.463-.547-2.268-.41-2.413.456-9.07 14.52-1.609 20.181 0 0 4.462.913 8.155-9.36-.146 1.78-.292 3.698-.402 5.753 0 0 1.024 2.283 1.975 2.648 0 0 4.315-13.287 7.021-17.579-.95 2.785-1.792 8.219.11 13.15.621 1.05 2.377 1.05 2.816.96-2.048-7.763 1.28-15.708 1.28-15.708Zm-17.627 4.383c.183 3.562-2.194 6.393-3.438 7.626.073-5.023 3.438-7.625 3.438-7.625Z" fill="url(#e)"/><path d="M52.844 20.863s-.512-.593-1.243-1.232c-.658 1.643-1.463 4.383-1.719 7.579 0 0-.11-4.475 1.097-8.082-1.133-.822-2.523-1.506-3.474-.685-3.584 3.014-6.034 14.657-5.34 17.808.367 1.552 1.171 2.328 2.597 3.287-.11-.959-.329-3.196.256-5.114l-1.024.274c.805-3.47 2.158-6.53 2.268-6.53l-1.06.412c1.243-2.968 3.254-6.073 3.254-6.073s-.512 3.425.585 5.981l-1.06-.41s.146 3.424 1.718 5.25l-1.024.137c1.06 3.334 3.913 2.694 4.352 2.603-2.816-7.488-.183-15.205-.183-15.205Z" fill="url(#f)"/><defs><linearGradient id="a" x1="20.45" y1="20.972" x2="28.692" y2="46.497" gradientUnits="userSpaceOnUse"><stop stop-color="#FF9700"/><stop offset=".998" stop-color="#FF6800"/><stop offset="1" stop-color="#FF6802"/></linearGradient><linearGradient id="b" x1="55.995" y1="9.494" x2="64.238" y2="35.02" gradientUnits="userSpaceOnUse"><stop stop-color="#FF9700"/><stop offset=".998" stop-color="#FF6800"/><stop offset="1" stop-color="#FF6802"/></linearGradient><linearGradient id="c" x1="72.884" y1="4.041" x2="81.126" y2="29.566" gradientUnits="userSpaceOnUse"><stop stop-color="#FF9700"/><stop offset=".998" stop-color="#FF6800"/><stop offset="1" stop-color="#FF6802"/></linearGradient><linearGradient id="d" x1="97.908" y1="-4.039" x2="106.15" y2="21.486" gradientUnits="userSpaceOnUse"><stop stop-color="#FF9700"/><stop offset=".998" stop-color="#FF6800"/><stop offset="1" stop-color="#FF6802"/></linearGradient><linearGradient id="e" x1="27.357" y1="18.742" x2="35.599" y2="44.267" gradientUnits="userSpaceOnUse"><stop stop-color="#FF9700"/><stop offset=".998" stop-color="#FF6800"/><stop offset="1" stop-color="#FF6802"/></linearGradient><linearGradient id="f" x1="44.346" y1="13.256" x2="52.589" y2="38.781" gradientUnits="userSpaceOnUse"><stop stop-color="#FF9700"/><stop offset=".998" stop-color="#FF6800"/><stop offset="1" stop-color="#FF6802"/></linearGradient></defs></svg>