<svg width="18" height="18" fill="none" xmlns="http://www.w3.org/2000/svg"><path d="M1.044 3.549h15.912c.577 0 1.044-.476 1.044-1.064 0-.587-.467-1.064-1.044-1.064H1.044C.467 1.421 0 1.898 0 2.485c0 .588.467 1.064 1.044 1.064Zm15.912 4.387H1.044C.467 7.936 0 8.414 0 9c0 .589.467 1.064 1.044 1.064h15.912C17.533 10.064 18 9.588 18 9c0-.586-.467-1.064-1.044-1.064Zm0 6.515H1.044C.467 14.451 0 14.93 0 15.515c0 .589.467 1.064 1.044 1.064h15.912c.577 0 1.044-.476 1.044-1.064 0-.586-.467-1.064-1.044-1.064Z" fill="#FF9701"/></svg>