<svg width="18" height="18" fill="none" xmlns="http://www.w3.org/2000/svg"><path d="m17.596 14.237-2.78-2.786c-.553-.553-1.47-.536-2.043.038l-1.4 1.404-.277-.155c-.884-.49-2.095-1.164-3.368-2.441C6.45 9.017 5.778 7.8 5.286 6.914c-.052-.094-.101-.184-.15-.27l.94-.94.462-.465c.574-.575.59-1.494.037-2.048L3.795.404c-.552-.553-1.47-.536-2.043.039l-.784.79.022.02a4.543 4.543 0 0 0-.646 1.142 4.74 4.74 0 0 0-.287 1.158c-.367 3.05 1.023 5.837 4.797 9.62 5.217 5.227 9.42 4.833 9.602 4.813a4.689 4.689 0 0 0 1.158-.291c.413-.162.8-.382 1.135-.645l.017.015.793-.778c.573-.576.59-1.495.037-2.05Z" fill="#FF9701"/></svg>