<svg width="31" height="14" viewBox="0 0 31 14" fill="none" xmlns="http://www.w3.org/2000/svg">
<path d="M30.7632 6.31752L24.5686 0.232072C24.254 -0.0773573 23.7492 -0.0773573 23.4346 0.232072C23.1199 0.541501 23.1199 1.03788 23.4346 1.34731L28.2591 6.09189H0.80628C0.360532 6.09189 0 6.44644 0 6.8848C0 7.32316 0.360532 7.67772 0.80628 7.67772H28.2591L23.4346 12.4094C23.1199 12.7188 23.1199 13.2152 23.4346 13.5246C23.5919 13.6794 23.7951 13.7567 24.0049 13.7567C24.2146 13.7567 24.4178 13.6794 24.5752 13.5246L30.7697 7.43275C31.0778 7.12977 31.0778 6.62695 30.7632 6.31752Z" fill="white"/>
</svg>
